HIERARCHY
ROOT Hips
{
	OFFSET -7.399734 108.848358 -3.559000
	CHANNELS 6 Xposition Yposition Zposition Xrotation Yrotation Zrotation
	JOINT Chest
	{
		OFFSET -1.419860 13.471565 1.629474
		CHANNELS 3 Xrotation Yrotation Zrotation
		JOINT Chest2
		{
			OFFSET -0.565805 21.340813 1.821073
			CHANNELS 3 Xrotation Yrotation Zrotation
			JOINT Chest3
			{
				OFFSET 4.173223 14.323822 -0.481772
				CHANNELS 3 Xrotation Yrotation Zrotation
				JOINT Neck
				{
					OFFSET 3.002047 16.919922 1.822032
					CHANNELS 3 Xrotation Yrotation Zrotation
					JOINT Head
					{
						OFFSET 0.938861 9.975372 3.072157
						CHANNELS 3 Xrotation Yrotation Zrotation
						End Site
						{
							OFFSET 0.978267 9.989822 3.012343
						}
					}
				}
				JOINT LeftCollar
				{
					OFFSET 4.881509 12.060516 5.702562
					CHANNELS 3 Xrotation Yrotation Zrotation
					JOINT LeftUpArm
					{
						OFFSET 17.475521 -1.547165 -0.843626
						CHANNELS 3 Xrotation Yrotation Zrotation
						JOINT LeftLowArm
						{
							OFFSET 27.530302 -3.344284 19.251644
							CHANNELS 3 Xrotation Yrotation Zrotation
							JOINT LeftHand
							{
								OFFSET 22.976120 -0.884201 19.294106
								CHANNELS 3 Xrotation Yrotation Zrotation
								End Site
								{
									OFFSET 5.021576 -0.193298 4.216827
								}
							}
						}
					}
				}
				JOINT RightCollar
				{
					OFFSET -2.648589 13.757980 2.347669
					CHANNELS 3 Xrotation Yrotation Zrotation
					JOINT RightUpArm
					{
						OFFSET -6.392563 10.507584 -12.538818
						CHANNELS 3 Xrotation Yrotation Zrotation
						JOINT RightLowArm
						{
							OFFSET -7.303564 32.037766 7.744268
							CHANNELS 3 Xrotation Yrotation Zrotation
							JOINT RightHand
							{
								OFFSET 21.034023 16.243759 13.952237
								CHANNELS 3 Xrotation Yrotation Zrotation
								End Site
								{
									OFFSET 4.597208 3.550217 3.049402
								}
							}
						}
					}
				}
			}
		}
	}
	JOINT LeftUpLeg
	{
		OFFSET 7.038212 -0.121086 7.132185
		CHANNELS 3 Xrotation Yrotation Zrotation
		JOINT LeftLowLeg
		{
			OFFSET 3.179462 -46.730679 7.079810
			CHANNELS 3 Xrotation Yrotation Zrotation
			JOINT LeftFoot
			{
				OFFSET 14.062210 -42.032104 -6.010349
				CHANNELS 3 Xrotation Yrotation Zrotation
				JOINT LeftToe
				{
					OFFSET -7.560493 -18.763361 12.261106
					CHANNELS 3 Xrotation Yrotation Zrotation
					End Site
					{
						OFFSET -13.437737 -5.412441 18.700041
					}
				}
			}
		}
	}
	JOINT RightUpLeg
	{
		OFFSET -7.038194 0.120895 -7.132212
		CHANNELS 3 Xrotation Yrotation Zrotation
		JOINT RightLowLeg
		{
			OFFSET 1.744219 -46.875641 -6.606433
			CHANNELS 3 Xrotation Yrotation Zrotation
			JOINT RightFoot
			{
				OFFSET 9.542521 -42.029701 -11.959290
				CHANNELS 3 Xrotation Yrotation Zrotation
				JOINT RightToe
				{
					OFFSET -14.634838 -17.427353 6.454918
					CHANNELS 3 Xrotation Yrotation Zrotation
					End Site
					{
						OFFSET -21.068062 -3.333471 10.226482
					}
				}
			}
		}
	}
}
MOTION
Frames: 17
Frame Time: 0.033333
-0.565276 105.877151 -1.111723 -3.094542 44.632554 0.717450 1.079793 -2.181045 7.531229 0.838492 -4.972813 12.378260 -4.276142 -9.844239 -6.485640 -11.187792 3.690718 -1.288830 0.000001 0.000001 -0.000000 18.861040 -8.913731 -25.675677 29.039482 -19.756872 -35.741765 17.653985 -18.201238 13.041939 0.000001 -0.000005 -0.000001 -14.977854 -6.783583 59.260641 -4.413504 -30.900309 82.871129 20.255322 -36.798665 60.612922 0.000002 0.000002 0.000001 8.026238 0.343948 2.274452 -4.759869 6.976241 -7.781890 -4.203295 -12.063317 -5.781010 0.000001 0.000002 -0.000001 -5.812724 1.053693 -1.439211 5.180242 -4.991992 2.544113 -0.169814 10.202202 4.298812 0.000000 -0.000003 0.000000 
-0.567496 105.883530 -1.114628 -3.491291 44.838211 0.705926 1.428160 -2.156712 7.779126 0.423920 -5.013095 12.169582 -3.959125 -10.105894 -6.329323 -11.224362 3.662652 -1.285847 0.000001 0.000001 -0.000000 18.748348 -9.278628 -25.424047 29.044498 -19.690648 -36.089046 17.313312 -18.343887 13.211133 0.000001 -0.000003 -0.000000 -15.065570 -6.885664 59.107515 -4.619245 -31.117573 82.915655 20.413216 -36.617180 60.758515 0.000003 0.000001 0.000007 8.040185 0.354056 2.278706 -4.605638 6.922965 -7.455264 -4.120219 -12.364106 -5.904349 0.000001 -0.000001 -0.000001 -6.091040 1.070661 -1.609883 5.842275 -4.844269 3.145991 -0.403156 10.166939 4.229764 -0.000000 0.000000 0.000001 
-0.569600 105.886086 -1.112941 -3.466012 44.874107 0.607492 1.558769 -2.143551 7.875930 0.317640 -5.061346 12.197858 -3.949797 -10.481386 -6.326134 -11.308062 3.908421 -1.452702 0.000000 0.000001 -0.000000 18.768969 -8.663635 -25.599684 29.029096 -19.756428 -36.046556 17.443830 -18.288620 13.147642 0.000001 -0.000010 -0.000002 -15.087046 -7.024187 59.139097 -4.595542 -31.114107 82.892842 20.738288 -36.634833 60.759382 0.000003 -0.000003 0.000005 8.046376 0.398499 2.384091 -4.526120 6.924068 -7.305839 -4.063640 -12.580586 -5.986489 0.000000 -0.000001 -0.000001 -6.401441 1.063444 -1.696824 6.211834 -4.759064 3.340210 -0.279599 9.984665 4.084470 -0.000000 -0.000003 0.000000 
-0.576714 105.894341 -1.114172 -3.890427 44.835643 0.636620 2.069282 -2.111273 8.170760 0.944507 -5.151151 12.768646 -4.651247 -10.251758 -6.830544 -11.157754 3.753680 -1.328893 0.000000 0.000001 -0.000001 18.828058 -8.880027 -25.728653 29.000922 -19.705533 -36.010786 17.214910 -18.422490 13.568289 0.000005 -0.000006 -0.000004 -15.052801 -6.892556 59.320924 -4.544468 -30.973200 82.904686 20.553101 -36.690441 60.481462 0.000003 0.000003 0.000002 8.245684 0.480919 2.660835 -4.218124 6.882167 -7.222021 -4.341291 -12.519551 -6.165065 -0.000000 -0.000003 0.000000 -6.540675 1.076825 -1.803672 6.892390 -4.570720 3.940116 -0.493329 9.983094 4.047981 0.000001 -0.000002 -0.000001 
-0.575918 105.911362 -1.117051 -3.812136 44.617313 0.665146 1.589228 -2.098841 7.658381 1.509094 -5.153289 13.143651 -4.883463 -10.039126 -6.948178 -10.734460 3.555795 -1.133097 0.000001 0.000003 0.000001 18.788546 -8.938220 -25.837153 29.002633 -19.644037 -35.950031 17.295147 -18.239259 13.655188 -0.000002 -0.000008 0.000001 -15.041554 -6.729369 59.402818 -4.579066 -30.975738 82.960707 20.327848 -36.777618 59.850653 0.000005 0.000003 -0.000000 8.106091 0.439995 2.437550 -4.203310 6.919236 -7.189310 -4.352176 -12.474535 -6.145631 0.000001 0.000001 -0.000001 -6.513791 1.107449 -1.957257 6.728325 -4.635049 3.841905 -0.499123 10.216453 4.273412 -0.000001 -0.000002 -0.000000 
-0.576436 105.926682 -1.116997 -3.898681 44.802489 0.642982 1.833474 -2.094539 7.888104 1.045813 -5.153308 12.798844 -4.517024 -10.222668 -6.707368 -10.524628 3.433624 -1.041019 0.000001 -0.000000 -0.000002 18.748963 -9.071856 -25.872466 28.999945 -19.637231 -35.895994 17.335748 -18.257866 13.684934 -0.000001 -0.000006 -0.000001 -15.167074 -6.877769 59.462356 -4.644989 -31.156680 82.917062 20.564310 -36.680165 59.287319 0.000003 0.000002 0.000001 8.234594 0.483773 2.548231 -4.294180 6.980377 -7.197274 -4.262981 -12.529692 -6.095811 0.000001 -0.000003 -0.000001 -6.623375 1.111224 -2.024151 7.155616 -4.580586 4.256575 -0.610042 10.275349 4.337659 -0.000001 0.000003 0.000001 
-0.570237 105.935883 -1.115697 -4.022855 44.664854 0.566795 1.689084 -2.083603 7.742439 1.118447 -5.206030 12.934129 -4.432847 -10.030060 -6.734313 -10.319690 3.226099 -0.853930 0.000000 -0.000001 -0.000001 18.725203 -9.056323 -25.788718 29.018854 -19.782374 -35.790727 17.499006 -18.091154 13.707227 -0.000001 -0.000010 -0.000002 -15.398658 -7.519858 59.320466 -4.586370 -31.261277 82.938161 20.315713 -36.838338 58.797253 0.000001 -0.000001 0.000006 8.252641 0.498632 2.620246 -3.969809 6.939097 -6.917301 -4.446384 -12.351560 -6.121622 -0.000001 0.000000 0.000000 -6.496950 1.100988 -1.915383 7.364651 -4.501737 4.557064 -0.740690 10.393058 4.434681 0.000001 0.000000 0.000000 
-0.561030 105.943657 -1.112753 -4.022778 44.355569 0.482458 1.640717 -2.074748 7.679630 0.812231 -5.137803 12.589583 -4.111595 -9.950493 -6.436500 -9.954103 3.025237 -0.631527 0.000002 -0.000001 -0.000000 18.682956 -9.136518 -25.920862 28.890177 -19.830947 -35.919832 17.261275 -17.541922 13.415671 0.000001 -0.000005 -0.000002 -15.539003 -7.568409 59.388406 -4.895252 -31.613042 82.778894 19.353741 -36.734868 58.302843 0.000001 0.000004 -0.000000 8.548496 0.530678 2.898982 -4.075877 6.933516 -7.080986 -4.753437 -12.114559 -6.212547 0.000000 -0.000003 -0.000001 -6.246912 1.077120 -1.661075 7.162374 -4.476043 4.301842 -0.310034 10.540082 4.665655 -0.000001 -0.000003 -0.000000 
-0.550650 105.945908 -1.106517 -3.854871 44.140292 0.405242 1.430042 -2.066300 7.478464 0.748618 -5.095572 12.439829 -3.957065 -9.863959 -6.229794 -9.923642 2.905913 -0.571100 0.000001 0.000001 -0.000000 18.589010 -9.279827 -25.921630 28.909025 -19.562195 -36.214653 17.030761 -17.337918 13.221658 0.000004 -0.000006 0.000001 -15.745826 -7.831454 59.237336 -5.331919 -32.219457 82.758240 18.611296 -36.639402 57.961443 0.000003 0.000000 0.000001 8.570680 0.543063 2.917242 -4.035543 6.945747 -7.044991 -5.031241 -11.960085 -6.311488 0.000001 -0.000003 -0.000001 -6.190099 1.022158 -1.504160 7.172535 -4.462091 4.121369 -0.620335 10.910909 4.943142 0.000001 0.000000 0.000001 
-0.536334 105.955162 -1.104078 -4.180889 44.277340 0.339924 1.506414 -2.069275 7.538520 0.801669 -5.169843 12.626520 -4.174765 -10.161697 -6.444591 -9.529202 2.739834 -0.365671 0.000001 -0.000003 -0.000000 18.660398 -8.785473 -26.117429 29.209413 -19.321051 -36.320948 17.046402 -16.933765 13.478827 -0.000001 -0.000008 0.000000 -15.813174 -8.020094 59.329871 -5.309614 -32.524702 82.716869 16.967477 -36.894076 56.335212 -0.000001 -0.000002 0.000003 8.861860 0.610317 3.199458 -4.143854 6.981892 -7.057038 -4.963177 -12.066506 -6.283754 0.000001 -0.000001 -0.000001 -5.736008 0.935129 -1.039891 6.904085 -4.588417 3.875805 -0.480168 10.980253 4.981302 0.000000 0.000002 0.000000 
-0.520805 105.971710 -1.102496 -4.443294 44.377679 0.139333 1.603365 -2.104554 7.689548 0.206094 -5.138085 12.201841 -3.756739 -10.747829 -6.114256 -9.385587 2.704820 -0.281814 0.000001 -0.000001 0.000000 18.862708 -8.399955 -26.418979 28.987207 -19.297636 -36.261426 16.367232 -16.596006 13.322460 0.000002 -0.000003 -0.000002 -15.963035 -8.352267 59.642257 -5.708172 -33.020065 82.166049 14.736623 -36.490689 54.300936 0.000007 -0.000002 0.000006 9.019943 0.660857 3.573289 -4.220809 6.881820 -7.230575 -4.590211 -11.947218 -5.981691 0.000001 0.000001 -0.000003 -5.814897 0.850749 -0.767542 6.970109 -4.528038 3.723033 -0.604125 10.954979 4.885653 0.000000 0.000002 0.000000 
-0.502208 105.991486 -1.103008 -5.096904 44.352581 0.092796 1.431619 -2.132609 7.554558 1.779175 -5.326710 13.592720 -5.101540 -10.644596 -7.077552 -9.096684 2.647995 -0.116870 0.000002 0.000003 0.000001 19.033224 -8.014391 -26.687475 28.931104 -19.133788 -36.280117 15.688977 -16.315997 13.287848 0.000004 -0.000003 0.000002 -16.108053 -8.657837 59.680765 -6.029465 -33.624844 81.705305 13.751086 -35.831391 52.469612 -0.000004 0.000000 0.000004 9.533877 0.847097 4.092344 -4.261573 6.666502 -7.484748 -4.745073 -11.842835 -6.088044 -0.000000 -0.000001 -0.000001 -5.503442 0.753833 -0.474820 7.105240 -4.379617 3.885084 -0.508412 10.843343 4.784926 0.000001 0.000000 -0.000001 
-0.461391 106.022705 -1.117218 -5.800885 43.843555 0.178962 1.615863 -2.113065 7.834634 2.696042 -5.474698 14.314502 -5.706714 -10.221310 -7.586187 -9.076766 2.391579 -0.388499 0.000002 0.000001 -0.000001 18.855675 -7.621899 -27.415278 28.351060 -18.359473 -36.721723 14.566762 -16.048156 12.759464 0.000004 -0.000008 0.000002 -16.884894 -9.445946 59.284068 -7.812333 -34.727352 80.002552 12.905841 -34.681874 50.492078 0.000003 -0.000003 0.000002 9.946762 1.031607 4.154289 -3.946704 6.611957 -7.356958 -5.312048 -11.418445 -6.364262 -0.000001 0.000002 -0.000001 -5.399960 0.659122 -0.766247 7.816327 -4.211815 4.406991 -0.866752 11.270783 4.935186 -0.000000 0.000002 0.000000 
-0.418501 106.057602 -1.142611 -5.448127 43.882039 -0.145518 1.447146 -2.141600 8.106275 2.422948 -5.701623 14.378240 -5.427385 -10.407772 -7.799311 -9.072282 1.845248 -0.440962 0.000003 -0.000001 0.000000 18.589557 -7.916890 -27.875581 27.939845 -17.471590 -36.745024 13.098717 -16.012158 13.316419 -0.000004 -0.000003 0.000001 -17.259266 -9.389552 59.077824 -9.079764 -34.700967 78.087258 11.762862 -33.483240 47.029708 0.000005 0.000000 -0.000002 9.291925 0.952756 3.786477 -2.934215 6.326963 -6.548711 -6.404891 -11.695439 -7.423576 0.000001 0.000002 -0.000001 -6.381487 0.721111 -1.465390 8.924568 -3.788761 5.491529 -1.383396 10.837788 4.573202 -0.000000 -0.000002 0.000000 
-0.374802 106.090118 -1.169517 -5.041549 43.218852 -0.243289 1.356883 -2.111442 7.882497 2.978422 -5.750472 14.819441 -5.726513 -9.546993 -7.984970 -9.177434 1.566531 -0.366275 0.000002 -0.000004 -0.000001 18.473983 -9.416006 -27.713863 27.605470 -16.563147 -36.810526 11.399674 -15.329417 13.513581 -0.000002 -0.000008 -0.000001 -17.780441 -10.075422 58.735734 -9.974275 -34.351309 76.141924 10.765672 -32.185515 45.003140 0.000001 0.000002 0.000003 9.089052 0.915379 3.539778 -2.847806 5.960324 -6.909664 -6.960236 -10.791462 -7.397827 0.000001 -0.000003 -0.000001 -7.152379 0.832862 -2.191253 9.762990 -3.296499 6.169759 -2.219721 11.329439 4.968607 -0.000001 -0.000003 -0.000000 
-0.330051 106.127159 -1.201732 -6.207906 43.411815 -0.474823 2.867881 -2.078451 9.499628 2.205552 -5.812867 14.295253 -6.275127 -10.609714 -8.407393 -9.736009 2.062240 -1.099103 0.000003 -0.000001 -0.000000 18.071338 -8.275775 -28.151263 27.907482 -14.367947 -37.177457 10.141183 -12.159354 12.733528 -0.000000 -0.000008 0.000002 -17.269039 -7.763938 59.116250 -11.678957 -34.532320 73.219013 5.968316 -30.983910 42.304996 0.000001 0.000001 0.000001 9.783976 0.953486 4.289485 -2.801070 5.540094 -6.836133 -7.174206 -9.867347 -7.248353 -0.000000 0.000003 -0.000001 -6.131177 0.753538 -1.244380 9.021841 -2.958896 6.061557 -2.301057 10.251083 4.553722 -0.000001 -0.000002 -0.000000 
-0.280788 106.166885 -1.238396 -6.784807 42.157997 -0.474295 3.987221 -1.955474 10.039887 0.322116 -5.414755 12.238376 -4.692099 -10.602753 -6.829597 -8.858527 1.919896 -0.850167 0.000003 0.000001 -0.000001 17.596386 -5.995748 -28.551357 27.821162 -12.287813 -37.157199 8.596681 -11.042369 12.144048 0.000002 0.000001 -0.000001 -17.239138 -7.107533 58.161759 -13.193423 -33.900247 69.437629 2.586429 -29.685252 40.772562 0.000003 -0.000003 0.000002 9.755303 0.769263 4.034973 -2.269981 4.974257 -7.254775 -8.115988 -7.467757 -6.748661 -0.000000 0.000001 -0.000001 -6.491903 0.954670 -1.731275 9.998950 -1.779336 6.941366 -3.424606 9.260342 4.469346 0.000001 -0.000005 0.000000 
